PathFileType	3	(X/Y/Z)	D:\Jess\Healthy\Labelled\HA16\20250507\SRRun02.trc
DataRate	CameraRate	NumFrames	NumMarkers	Units	OrigDataRate	OrigDataStartFrame	OrigNumFrames
250.0	250.0	4	37	mm	250.0	35312	2501
Frame#	Time	C7			T10			CLAV			LSHO			RSHO			LASIS			RASIS			LPSIS			RPSIS			LILCR			RILCR			LGTR			LTHI			LLTHI			LLEP			LMEP			LPSH			LLSH			LDSH			LLMAL			LMMAL			LTOE			L5TH			LHEE			RGTR			RTHI			RLTHI			RLEP			RMEP			RPSH			RLSH			RDSH			RLMAL			RMMAL			RTOE			R5TH			RHEE			
		X1	Y1	Z1	X2	Y2	Z2	X3	Y3	Z3	X4	Y4	Z4	X5	Y5	Z5	X6	Y6	Z6	X7	Y7	Z7	X8	Y8	Z8	X9	Y9	Z9	X10	Y10	Z10	X11	Y11	Z11	X12	Y12	Z12	X13	Y13	Z13	X14	Y14	Z14	X15	Y15	Z15	X16	Y16	Z16	X17	Y17	Z17	X18	Y18	Z18	X19	Y19	Z19	X20	Y20	Z20	X21	Y21	Z21	X22	Y22	Z22	X23	Y23	Z23	X24	Y24	Z24	X25	Y25	Z25	X26	Y26	Z26	X27	Y27	Z27	X28	Y28	Z28	X29	Y29	Z29	X30	Y30	Z30	X31	Y31	Z31	X32	Y32	Z32	X33	Y33	Z33	X34	Y34	Z34	X35	Y35	Z35	X36	Y36	Z36	X37	Y37	Z37	

313	141.244	1078.231535122924	1315.298700156493	-402.8200725799915	988.1756657839613	1088.049880202457	-376.2541517083347	1210.219200499028	1202.759377037448	-414.6412669619566	1171.485138138175	1261.709641211432	-267.136155698247	1125.788739124875	1264.670027231638	-547.0528230259349	1131.631986727639	860.8129494944172	-513.2669236932858	1151.809292366538	824.9665055734691	-279.5318134884524	959.0405898106553	898.9116644861919	-393.5744124914884	964.0297303452442	890.6728899197332	-346.5862912410272	1071.639401382504	937.9824605917049	-533.9061619358143	1096.46889792344	903.5060136521068	-238.4132450755565	1056.600725169927	795.7125207094541	-572.3085314126324	1198.184170676521	664.7465744022512	-509.9001929285123	1128.501976908143	556.9150811006224	-543.0937444427983	1161.480978078303	429.3880014285561	-519.8390621578344	nan	nan	nan	1194.79989892624	340.9319094127898	-458.2788959657523	1090.382054831874	267.9483239538704	-525.4599677208236	1106.116013609421	175.5593312628801	-451.0786636114012	1012.232106272359	107.5959192649387	-489.7938463942231	nan	nan	nan	1137.487204758131	61.40170226563755	-485.0948999115692	1098.276478494856	39.05431649638078	-529.1337665601757	941.0187214563786	81.44688905925898	-443.946002738606	1076.176073750933	735.7054152575131	-213.0174852166372	1200.401535182764	621.4040465633664	-310.0278734188532	1117.915908298145	523.2775449155163	-240.581346081366	1125.165060208726	406.6809930863944	-256.2154459252061	nan	nan	nan	1096.980112264655	325.9717752830405	-304.3143395657718	982.5846714525221	360.7843609393093	-247.7560159166645	892.2879803339107	289.3759930840789	-299.7777366372371	792.6278992558605	325.9654219809906	-276.1582809418839	nan	nan	nan	764.9634561646827	190.466678051282	-263.3639971647854	735.0023447011948	224.6095133886899	-238.5182081432094	761.452222179808	377.9946102642434	-333.0962136990097	
314	141.248	1077.796036028995	1315.026489989181	-403.4534411585358	987.66898541105	1087.900416263898	-377.3623142664576	1210.063013698068	1202.66074382329	-413.7284457508877	1169.333722496871	1261.764638164152	-266.5419010840058	1127.179107737335	1264.635560904698	-547.0663156930957	1131.896767730491	859.7453228169912	-512.5518832476956	1150.540152131836	824.9548186574683	-279.1680784693946	958.5641232253165	899.3258839442315	-394.8589723670943	963.2936334479831	891.0134061621934	-347.8265476955772	1072.161287718833	938.1650569397428	-533.8569694228001	1095.262443943416	903.8335850777341	-238.4131628007079	1056.847490881968	795.1641710407678	-572.4833957910882	1195.803189116105	662.3577735577202	-509.3355616506205	1124.411873899645	555.4382544987822	-542.8498900533889	1155.27516477794	427.2398936289945	-519.665689545165	nan	nan	nan	1188.069987888994	338.4123009783436	-458.5198709066702	1082.265136950226	266.8331867503338	-525.086363573063	1097.220093001616	174.3945932323276	-450.9656610268275	1002.325634585034	107.8116660521059	-489.5578631147051	nan	nan	nan	1127.273247569585	61.1369356877848	-485.1124486744148	1087.882118927539	39.02102740655162	-529.1076386104874	930.9063067368477	81.88354589183612	-443.6566838176935	1074.716986936665	735.9105195189867	-213.2429445587935	1202.188430858751	623.2214889918021	-310.038711284472	1122.318817033861	524.0365776424687	-240.3050760343253	1132.132969553524	407.4274251522257	-256.456912092032	nan	nan	nan	1105.143929085214	326.8310692885349	-305.042543213168	990.8205511888816	360.4296108855855	-247.9145035578002	900.8885682253028	288.0310107757045	-300.0408315696136	800.7501587635358	323.1924434600791	-276.0516048263352	nan	nan	nan	775.3958102091949	187.1608478028868	-264.0019826536611	744.9591051838795	220.5915457101853	-238.7964309606016	768.1958128705564	375.0712528164077	-332.4422685353798	
315	141.252	1077.312648660118	1314.94892517041	-404.0432931357722	987.2364130758825	1087.900937226774	-378.5016393123998	1209.885361476437	1202.859285955174	-412.7173699246055	1167.064872690834	1262.132949026291	-265.8985872661764	1128.594346921162	1264.934751324925	-546.9912473492147	1132.238187031915	858.7404538343058	-511.8131588300366	1149.298323817158	825.3335689884361	-278.733774294825	958.1311673060002	899.896997534204	-396.221218535006	962.5928669673506	891.5266861919239	-349.1470824785582	1072.892486806483	938.3821688966697	-533.8267330336571	1094.03437752287	904.4597938829788	-238.4232799435983	1057.148911922333	794.701589875616	-572.6479609537548	1193.366690228615	659.9970721751498	-508.8309966969355	1120.154849254498	554.1012712415956	-542.5860863520319	1148.866969257853	425.2478213814789	-519.4756159270823	nan	nan	nan	1181.119539752551	336.055510193961	-458.7475903281832	1073.985750476242	265.8495535009197	-524.7199996018629	1088.221281123499	173.3363262698327	-450.8624779431593	992.3854784698121	108.0638899712511	-489.318636734772	nan	nan	nan	1117.038115660958	60.87811165342554	-485.1295914067932	1077.468240715635	38.98364936674911	-529.0701269012221	920.7691603858103	82.36723459736534	-443.3625365171914	1073.175494972313	736.3828782505377	-213.4335959909373	1203.886126841166	625.3277412329721	-309.9150155234464	1126.655577500269	525.1490893988686	-240.0035099214052	1138.955930704438	408.6005656703923	-256.716311495666	nan	nan	nan	1113.280568403868	328.0334388246997	-305.7067254014947	998.9407856065421	360.2561346927657	-248.1090208368317	909.5560677000407	286.6187411051632	-300.2727432194649	808.8903855456853	320.1300222707182	-275.9500215466521	nan	nan	nan	786.1420445562187	183.5780001300935	-264.6312683174576	755.1670345566453	216.2197398869206	-239.085812156019	774.8740395664602	371.750220419424	-331.8055357288263	
316	141.256	1076.791819856686	1315.070849574704	-404.5879931532139	986.8812467658578	1088.052302759839	-379.6777412861202	1209.692471208307	1203.348978197183	-411.6085559230559	1164.691896241391	1262.804277368877	-265.2093773145033	1130.037907603307	1265.558834988637	-546.825309132051	1132.646594433918	857.8149358609242	-511.0709815293081	1148.090497218381	826.0749076460977	-278.2272009279609	957.7512496600153	900.6196433049865	-397.6252582829736	961.9355997851077	892.206811106811	-350.5114088610356	1073.830399409668	938.6145496701821	-533.8177862943501	1092.778819872594	905.3468366935746	-238.4427371951133	1057.479682340176	794.3379205533869	-572.7994292567375	1190.876954450127	657.6882412475755	-508.3939579436555	1115.761825538169	552.9258598308286	-542.3078807724486	1142.29496236129	423.4409287270693	-519.266702673974	nan	nan	nan	1173.963522633297	333.8900697545384	-458.9382045877924	1065.582678567031	265.0155751836757	-524.3630762811781	1079.130952228996	172.4046247774752	-450.759461513141	982.4211233162995	108.3688510397157	-489.0767214552384	nan	nan	nan	1106.786062436967	60.63125983811821	-485.1446817843868	1067.039250653004	38.95181302015959	-529.0215731461136	910.6159859850576	82.91581927063379	-443.0694578101202	1071.579136382885	737.1041852330172	-213.585368745474	1205.48684314876	627.7249310679233	-309.6567886698957	1130.903814701612	526.6116226606592	-239.6856868649116	1145.614620659009	410.200872674218	-256.9900890363079	nan	nan	nan	1121.367208924967	329.5765513795689	-306.2965534246458	1006.918707206199	360.2566213291442	-248.3386435592154	918.2797305340023	285.143567395245	-300.4725406861072	817.047563427368	316.7856060249203	-275.8594014805174	nan	nan	nan	797.2025593833403	179.744053612915	-265.2439421380206	765.6291787472875	211.519300113647	-239.3837385287056	781.495935884183	368.0273855221109	-331.2020903571318	
